<?xml version="1.0" standalone="no"?>
<!DOCTYPE svg PUBLIC "-//W3C//DTD SVG 20010904//EN"
 "http://www.w3.org/TR/2001/REC-SVG-20010904/DTD/svg10.dtd">
<svg version="1.0" xmlns="http://www.w3.org/2000/svg"
 width="640.000000pt" height="640.000000pt" viewBox="0 0 640.000000 640.000000"
 preserveAspectRatio="xMidYMid meet">
<metadata>
Created by potrace 1.14, written by Peter Selinger 2001-2017
</metadata>
<g transform="translate(0.000000,640.000000) scale(0.100000,-0.100000)"
fill="#000000" stroke="none">
<path d="M341 6386 c-8 -10 -22 -11 -53 -6 -41 8 -46 6 -86 -30 -15 -13 -17
-42 -15 -265 5 -587 12 -885 23 -905 7 -14 8 -44 1 -100 -7 -53 -7 -89 0 -106
5 -15 9 -72 8 -128 -1 -55 3 -119 9 -141 5 -22 10 -94 11 -160 2 -191 9 -349
15 -365 3 -8 7 -60 10 -115 3 -55 11 -149 17 -210 7 -60 12 -126 12 -145 -2
-95 -13 -329 -18 -355 -3 -19 1 -38 10 -50 8 -11 15 -39 15 -62 0 -29 4 -43
14 -43 17 0 27 -112 17 -187 -4 -29 -4 -54 1 -55 5 -2 11 -66 14 -143 2 -77 9
-193 15 -258 6 -64 7 -126 4 -137 -7 -22 14 -100 27 -100 4 0 8 -15 8 -32 0
-18 7 -57 14 -86 13 -46 13 -54 0 -59 -16 -6 -19 -63 -3 -63 7 0 10 -14 7 -37
-3 -21 -1 -45 3 -53 9 -19 31 -146 33 -191 0 -19 4 -36 8 -39 4 -3 12 -89 18
-190 5 -102 14 -230 20 -285 5 -55 12 -139 14 -187 3 -49 7 -92 11 -97 3 -6 6
-107 7 -225 0 -161 4 -222 14 -242 9 -17 14 -60 14 -119 0 -51 4 -95 9 -97 14
-5 1 -178 -14 -178 -7 0 -25 -10 -40 -21 -22 -18 -29 -20 -36 -8 -7 11 -9 9
-9 -8 0 -16 -8 -23 -30 -28 -17 -4 -44 -18 -60 -31 -50 -43 -135 -42 -100 1 8
10 8 19 1 34 -15 27 -14 41 4 41 8 0 15 5 15 11 0 19 -34 109 -41 109 -14 0
-51 202 -64 355 -4 39 -13 85 -21 103 -8 17 -17 70 -18 116 -2 47 -6 88 -9 93
-11 18 -30 182 -32 278 -2 115 -16 244 -29 263 -5 8 -10 62 -13 120 -6 141
-10 189 -20 237 -5 22 -6 55 -2 72 8 39 -5 116 -20 121 -6 2 -11 27 -12 55 0
29 -4 75 -9 102 -4 28 -8 -446 -9 -1052 l-1 -1103 3200 0 3200 0 0 2913 0
2912 -40 43 c-22 24 -40 47 -40 52 0 6 -4 10 -8 10 -5 0 -23 21 -41 46 -42 57
-130 148 -153 157 -10 3 -18 12 -18 19 0 7 -14 22 -31 33 -17 11 -46 43 -65
72 -20 29 -45 55 -56 59 -12 3 -39 24 -62 45 l-40 39 -779 0 c-651 0 -778 -2
-768 -13 13 -17 5 -27 -22 -27 -14 0 -18 5 -14 20 5 20 0 20 -564 20 l-570 0
5 -82 c11 -169 27 -305 46 -380 12 -47 20 -111 20 -162 0 -47 4 -96 9 -109 5
-13 11 -116 12 -228 3 -178 5 -207 21 -231 12 -17 15 -29 8 -33 -5 -3 -10 -14
-10 -23 0 -21 -69 -79 -105 -88 -14 -4 -29 -12 -32 -19 -2 -7 -16 -16 -31 -20
-15 -4 -29 -10 -32 -13 -9 -12 -71 -42 -86 -42 -8 0 -14 -4 -14 -10 0 -5 -12
-10 -27 -10 -18 0 -23 3 -15 8 6 5 23 23 37 42 14 19 25 30 25 24 0 -8 19 23
52 86 7 14 22 38 33 55 19 29 28 40 74 94 12 13 21 28 21 33 0 13 -39 48 -54
48 -20 0 -76 -21 -76 -29 0 -4 -18 -26 -39 -49 -22 -23 -41 -45 -43 -49 -8
-19 -72 -64 -84 -59 -7 3 -16 -3 -20 -12 -5 -13 -9 -9 -15 18 -4 20 -3 42 3
54 13 24 11 380 -3 384 -5 2 -9 62 -9 138 0 112 2 134 15 134 19 0 19 13 -1
52 -13 26 -15 62 -12 232 2 111 8 207 12 214 4 7 4 17 1 22 -4 6 -200 10 -557
10 l-550 0 28 -37 c15 -21 32 -39 36 -41 4 -2 8 -26 8 -53 0 -27 6 -64 14 -82
25 -60 29 -214 27 -986 0 -128 1 -236 3 -240 2 -3 7 -47 10 -98 6 -89 -3 -143
-23 -143 -9 0 -27 57 -23 73 1 4 -5 7 -13 7 -8 0 -15 7 -15 15 0 9 -9 15 -25
15 -15 0 -25 6 -25 14 0 8 -16 31 -35 50 -19 20 -35 43 -35 51 0 8 -4 15 -8
15 -5 0 -14 11 -20 25 -6 14 -18 25 -25 25 -7 0 -25 19 -40 43 -27 43 -94 111
-117 119 -6 2 -12 10 -13 18 -1 8 -10 26 -20 40 -18 26 -22 50 -9 50 11 0 4
330 -9 388 -5 26 -9 65 -8 87 3 51 1 79 -7 132 -3 23 -1 57 5 75 15 46 22 123
21 252 0 60 4 114 9 120 4 6 11 23 13 39 l5 27 -363 0 c-280 0 -364 -3 -368
-12 -5 -10 -7 -10 -12 0 -4 9 -42 12 -139 12 -97 0 -135 -3 -139 -12 -5 -10
-7 -10 -12 0 -8 16 -29 15 -43 -2z m3974 -53 c25 -12 34 -22 30 -34 -6 -18 18
-49 38 -49 8 0 7 -3 -2 -9 -17 -11 -10 -186 8 -204 6 -6 11 -19 11 -28 0 -13
-6 -16 -22 -11 -13 3 -26 10 -30 16 -4 6 -8 -1 -8 -16 0 -30 -19 -78 -31 -78
-4 0 -9 10 -11 23 -2 16 -11 23 -30 25 -18 2 -28 10 -29 20 -1 15 -2 15 -6 0
-8 -32 -23 -19 -24 20 0 20 -1 78 -3 127 -3 99 13 168 47 198 23 21 19 21 62
0z m-51 -464 c-10 -16 -24 -9 -24 12 0 18 2 19 15 9 8 -7 12 -16 9 -21z m52 4
c-10 -10 -19 5 -10 18 6 11 8 11 12 0 2 -7 1 -15 -2 -18z m-65 -46 c-19 -19
-13 -47 9 -47 22 0 25 -7 11 -29 -16 -24 -41 12 -41 58 0 33 3 39 16 34 11 -4
12 -9 5 -16z m232 -617 c2 -14 6 -32 10 -40 14 -37 19 -74 26 -198 5 -73 14
-138 20 -146 8 -10 10 -68 6 -200 -4 -107 -2 -219 4 -263 23 -171 31 -294 19
-286 -5 2 -8 11 -8 19 0 8 -6 14 -12 14 -16 0 -58 43 -58 59 0 5 -13 24 -30
41 -16 17 -30 37 -30 44 0 8 -7 19 -15 26 -8 7 -15 21 -15 31 0 11 -6 19 -14
19 -8 0 -23 16 -35 35 -11 19 -25 35 -30 35 -19 0 -61 48 -58 66 2 11 11 33
20 51 9 18 17 39 17 48 0 8 4 23 9 33 16 31 34 96 38 134 2 21 10 50 18 65 8
16 15 53 15 83 0 30 10 80 21 110 21 55 46 150 53 202 5 28 15 52 21 46 2 -2
6 -15 8 -28z m1043 -50 c-6 -45 -3 -58 25 -110 38 -72 31 -90 -37 -90 -34 0
-44 4 -49 20 -3 11 -11 20 -16 20 -11 0 0 111 12 125 5 5 9 20 9 33 0 25 24
51 49 52 11 0 12 -11 7 -50z m74 -322 c0 -30 -1 -31 -17 -16 -13 14 -14 20 -3
32 18 22 20 20 20 -16z m12 -90 c3 -27 2 -48 -2 -48 -9 0 -19 80 -12 93 7 13
9 5 14 -45z m656 -486 c2 -16 10 -22 28 -22 16 0 24 -6 24 -17 0 -10 3 -28 6
-40 6 -21 3 -23 -40 -23 l-46 0 0 66 c0 48 3 65 13 62 6 -3 13 -14 15 -26z
m-671 -84 c-2 -13 -4 -3 -4 22 0 25 2 35 4 23 2 -13 2 -33 0 -45z m25 10 c-9
-9 -12 -7 -12 12 0 19 3 21 12 12 9 -9 9 -15 0 -24z m733 -79 c4 -11 4 -23 2
-26 -9 -8 -24 5 -30 27 -7 27 20 27 28 -1z m-735 -340 c0 -5 -4 -9 -10 -9 -5
0 -10 7 -10 16 0 8 5 12 10 9 6 -3 10 -10 10 -16z m-90 -71 c0 -35 0 -79 1
-98 1 -19 -2 -45 -6 -57 -6 -19 -4 -23 14 -23 11 0 21 6 21 14 0 7 9 25 20 39
11 14 16 27 10 29 -6 2 -4 19 5 43 l14 40 1 -42 c0 -24 4 -43 9 -43 14 0 24
-72 12 -80 -8 -4 -7 -19 3 -48 13 -36 13 -42 0 -53 -13 -10 -17 -10 -25 2 -5
8 -9 9 -9 3 0 -17 -32 -27 -41 -13 -5 9 -14 9 -39 -1 -39 -16 -36 -43 5 -50
l30 -6 -31 -5 c-33 -5 -64 9 -64 30 0 6 -4 11 -8 11 -5 0 -14 11 -20 25 -11
24 -11 25 16 19 l27 -6 -25 15 c-14 8 -29 10 -34 5 -28 -24 -33 -6 -31 115 3
149 3 150 15 142 6 -3 10 -28 10 -55 0 -27 5 -52 10 -55 6 -3 10 3 10 15 0 16
5 20 18 16 10 -4 27 1 38 9 18 14 18 16 2 25 -16 10 -15 14 10 55 15 25 28 45
30 45 2 0 3 -28 2 -62z m-970 -364 c0 -51 54 -131 100 -145 19 -6 41 -18 48
-27 25 -33 7 -139 -29 -168 -16 -13 -212 -25 -229 -14 -6 4 -11 15 -11 26 1
37 20 236 26 274 8 45 45 90 75 90 16 0 20 -6 20 -36z m-977 7 c47 -20 62 -42
49 -69 -11 -21 -8 -124 5 -179 9 -37 65 -139 84 -153 17 -12 20 -57 4 -70 -13
-10 -28 -11 -83 -1 -37 7 -100 19 -140 26 -40 7 -78 17 -83 22 -26 26 -12 222
21 308 21 55 71 135 85 135 7 0 33 -9 58 -19z m2042 -110 c3 -5 1 -12 -4 -15
-12 -8 -41 3 -41 15 0 12 37 12 45 0z m-9 -148 c-1 -108 -5 -113 -61 -83 -17
9 -31 26 -33 39 -2 14 -9 21 -17 17 -7 -2 -19 2 -25 10 -16 18 4 46 26 37 8
-3 14 0 14 6 0 6 11 11 25 11 17 0 25 6 25 17 0 19 29 55 40 48 3 -2 6 -48 6
-102z m-120 88 c-3 -5 1 -12 10 -15 23 -9 9 -22 -23 -20 -35 1 -44 31 -11 37
13 2 24 5 26 6 2 0 1 -3 -2 -8z m-71 -183 c1 -53 -1 -57 -25 -61 -30 -6 -40
-1 -40 20 0 11 6 14 25 9 24 -6 25 -4 25 39 0 32 -4 45 -14 45 -8 0 -17 -6
-19 -12 -3 -8 -6 -5 -6 5 -1 14 5 18 27 15 26 -3 27 -5 27 -60z m140 -65 c-21
-15 -45 -17 -45 -5 0 12 43 31 54 24 5 -3 1 -11 -9 -19z m-890 -25 c25 -12 45
-26 45 -30 0 -4 -40 -8 -90 -8 -72 0 -109 -6 -187 -31 -184 -57 -323 -137
-323 -184 0 -13 5 -27 11 -31 6 -4 71 -10 143 -14 103 -5 141 -11 179 -29 l47
-22 43 25 c23 14 57 39 76 56 64 60 77 64 115 46 27 -13 40 -14 65 -5 52 18
61 8 61 -71 0 -79 -28 -175 -79 -277 -17 -33 -31 -65 -31 -69 0 -5 -16 -33
-35 -63 -19 -29 -35 -56 -35 -60 0 -6 -120 -167 -165 -222 -28 -33 -106 -86
-138 -94 -15 -4 -29 -11 -32 -15 -3 -5 -29 -15 -58 -24 -185 -55 -299 -69
-451 -57 -90 7 -111 13 -186 50 -131 63 -194 135 -218 248 -10 45 0 182 16
223 5 14 16 45 23 69 8 28 31 62 66 98 29 29 53 57 53 62 0 31 176 61 355 61
93 0 113 11 74 43 -22 18 -34 19 -181 13 -147 -6 -158 -5 -158 11 0 18 33 51
105 105 42 31 54 32 138 10 46 -12 55 -1 27 35 -26 34 -19 42 75 76 104 39
157 48 265 45 81 -3 101 0 117 14 46 41 197 50 268 16z m-1130 -69 c39 -11 86
-23 105 -27 28 -6 35 -12 33 -30 -4 -30 -32 -72 -49 -72 -7 0 -18 9 -24 20 -6
11 -53 41 -105 66 -52 25 -97 50 -100 55 -10 15 66 9 140 -12z m2095 -14 c0
-8 -7 -15 -15 -15 -8 0 -14 -3 -13 -7 1 -5 -2 -23 -6 -40 -9 -40 -31 -45 -23
-6 3 15 1 36 -5 47 -7 13 -6 21 3 27 23 14 59 10 59 -6z m-818 -40 c15 -33 2
-46 -56 -55 -51 -8 -52 4 -7 52 33 34 48 35 63 3z m752 -511 c4 -9 5 -17 4
-18 -2 -1 -13 -7 -25 -13 -27 -15 -73 -17 -73 -3 0 6 5 10 11 10 6 0 9 9 6 20
-4 17 0 20 33 20 26 0 40 -5 44 -16z m-181 -21 c-7 -2 -21 -2 -30 0 -10 3 -4
5 12 5 17 0 24 -2 18 -5z m214 -35 c-3 -8 -6 -5 -6 6 -1 11 2 17 5 13 3 -3 4
-12 1 -19z m-23 -37 c-1 -6 -2 -24 -2 -41 -2 -40 -18 -38 -26 3 l-7 32 -13
-24 c-13 -23 -13 -23 -19 -2 -3 11 -10 21 -17 21 -6 0 -8 -5 -5 -10 4 -7 -19
-10 -64 -8 -39 1 -71 6 -71 11 0 5 22 7 51 5 29 -3 45 -2 37 3 -7 5 -30 9 -50
9 -21 0 -38 4 -38 9 0 5 51 8 113 6 77 -1 112 -6 111 -14z m-174 -76 c-7 -8
-14 -15 -15 -15 -2 0 -5 7 -9 15 -4 10 1 15 16 15 17 0 18 -2 8 -15z m114 0
c-7 -17 -17 -18 -54 -8 -23 7 -21 8 15 14 22 3 41 7 42 8 1 0 0 -6 -3 -14z
m-84 -106 c0 -5 -4 -7 -10 -4 -6 4 -10 -13 -10 -44 0 -27 5 -53 10 -56 6 -3
10 2 10 13 0 13 7 18 23 18 19 -1 22 5 25 42 2 28 8 42 18 42 11 0 14 -20 14
-101 l0 -102 -55 6 c-47 5 -55 3 -60 -14 -4 -10 -4 -23 0 -28 5 -9 -24 -31
-39 -31 -11 0 -6 98 4 102 6 2 12 30 13 63 2 42 8 67 22 83 21 24 35 28 35 11z
m-872 -214 c-3 -14 -1 -28 3 -31 14 -8 11 -54 -3 -55 -7 0 -3 -4 10 -9 21 -9
30 -39 15 -54 -18 -17 -32 -131 -33 -266 -1 -80 -7 -185 -14 -235 -11 -90 -11
-90 -39 -87 -22 2 -27 -1 -27 -20 -1 -20 -2 -21 -11 -5 -5 9 -17 17 -24 17
-10 0 -15 10 -15 28 0 33 -16 52 -45 52 -30 0 -63 27 -79 64 -9 21 -17 96 -21
195 -8 160 -7 162 14 168 11 3 21 13 21 22 0 9 5 22 12 29 7 7 8 12 2 12 -6 0
9 20 33 45 23 25 46 45 51 45 11 0 52 47 52 60 0 6 6 10 13 10 6 0 23 9 37 20
35 28 53 26 48 -5z m-2900 -47 c13 -22 23 -28 39 -25 13 2 28 -2 34 -9 6 -8
21 -14 32 -14 20 0 35 -11 79 -57 12 -13 27 -23 33 -23 6 0 21 -11 33 -25 12
-14 29 -25 37 -25 8 0 15 -4 15 -10 0 -5 -6 -10 -12 -10 -9 0 -13 -19 -14 -57
-3 -145 -20 -273 -36 -273 -10 0 -6 -27 8 -64 4 -11 1 -16 -10 -16 -14 0 -20
-11 -17 -32 0 -4 -9 -13 -22 -19 -12 -7 -24 -15 -27 -18 -3 -3 -33 -21 -68
-39 -55 -29 -64 -31 -77 -18 -8 8 -15 22 -15 30 0 9 -4 16 -9 16 -12 0 -20 47
-10 57 7 7 -2 61 -20 123 -4 14 -5 35 -1 45 4 11 6 78 3 149 -3 104 -6 131
-20 141 -14 10 -14 17 -2 64 9 37 10 54 2 59 -6 4 -14 26 -17 48 -7 40 -7 41
18 37 15 -3 34 -18 44 -35z m27 2 c3 -5 1 -10 -4 -10 -6 0 -11 5 -11 10 0 6 2
10 4 10 3 0 8 -4 11 -10z m3713 -77 c2 -8 -6 -13 -22 -13 -17 0 -26 5 -26 16
0 19 41 16 48 -3z m-5 -73 c-1 -19 -2 -58 -2 -86 -1 -38 -5 -53 -17 -58 -9 -3
-20 -4 -25 0 -14 9 -10 64 8 113 13 33 14 46 5 49 -18 6 -3 24 16 20 13 -3 16
-13 15 -38z m-83 -480 c0 -5 -4 -10 -10 -10 -5 0 -10 5 -10 10 0 6 5 10 10 10
6 0 10 -4 10 -10z"/>
<path d="M5410 3510 c0 -5 4 -10 9 -10 6 0 13 5 16 10 3 6 -1 10 -9 10 -9 0
-16 -4 -16 -10z"/>
<path d="M5530 3450 c-12 -8 -9 -10 13 -10 15 0 27 5 27 10 0 13 -20 13 -40 0z"/>
<path d="M5520 3080 c0 -11 2 -20 4 -20 2 0 11 -3 20 -6 12 -5 16 0 16 20 0
19 -5 26 -20 26 -13 0 -20 -7 -20 -20z"/>
<path d="M4300 2129 c-27 -33 -50 -67 -50 -75 0 -23 43 -33 104 -25 75 10 90
25 54 56 -24 21 -26 27 -18 56 21 72 -25 67 -90 -12z"/>
<path d="M1625 1700 c3 -5 8 -10 11 -10 2 0 4 5 4 10 0 6 -5 10 -11 10 -5 0
-7 -4 -4 -10z"/>
<path d="M0 3189 c0 -5 5 -7 10 -4 5 3 10 8 10 11 0 2 -4 4 -10 4 -5 0 -10 -5
-10 -11z"/>
</g>
</svg>
